<mxfile host="65bd71144e">
    <diagram id="0SOUcGxigejBTC3Z5d4D" name="Page-1">
        <mxGraphModel dx="148" dy="328" grid="1" gridSize="10" guides="1" tooltips="1" connect="1" arrows="1" fold="1" page="1" pageScale="1" pageWidth="850" pageHeight="1100" math="0" shadow="0">
            <root>
                <mxCell id="0"/>
                <mxCell id="1" parent="0"/>
                <mxCell id="2" value="Profile Service" style="rounded=0;whiteSpace=wrap;html=1;" parent="1" vertex="1">
                    <mxGeometry x="120" y="220" width="120" height="60" as="geometry"/>
                </mxCell>
                <mxCell id="3" value="Browser" style="rounded=0;whiteSpace=wrap;html=1;" parent="1" vertex="1">
                    <mxGeometry x="60" y="110" width="120" height="60" as="geometry"/>
                </mxCell>
                <mxCell id="4" value="Image Service" style="rounded=0;whiteSpace=wrap;html=1;" parent="1" vertex="1">
                    <mxGeometry x="210" y="340" width="120" height="60" as="geometry"/>
                </mxCell>
                <mxCell id="5" value="Gear Service" style="rounded=0;whiteSpace=wrap;html=1;" parent="1" vertex="1">
                    <mxGeometry x="305" y="200" width="120" height="60" as="geometry"/>
                </mxCell>
                <mxCell id="6" value="" style="shape=image;verticalLabelPosition=bottom;labelBackgroundColor=#ffffff;verticalAlign=top;aspect=fixed;imageAspect=0;image=data:image/svg+xml,PHN2ZyB4bWxucz0iaHR0cDovL3d3dy53My5vcmcvMjAwMC9zdmciIGlkPSJmMmYwNDM0OS04YWVlLTQ0MTMtODRjOS1hOTA1MzYxMWIzMTkiIHdpZHRoPSIxOCIgaGVpZ2h0PSIxOCIgdmlld0JveD0iMCAwIDE4IDE4Ij48ZGVmcz48bGluZWFyR3JhZGllbnQgaWQ9ImFkNGM0Zjk2LTA5YWEtNGY5MS1iYTEwLTVjYjhhZDUzMGY3NCIgeDE9IjkiIHkxPSIxNS44MyIgeDI9IjkiIHkyPSI1Ljc5IiBncmFkaWVudFVuaXRzPSJ1c2VyU3BhY2VPblVzZSI+PHN0b3Agb2Zmc2V0PSIwIiBzdG9wLWNvbG9yPSIjYjNiM2IzIi8+PHN0b3Agb2Zmc2V0PSIwLjI2IiBzdG9wLWNvbG9yPSIjYzFjMWMxIi8+PHN0b3Agb2Zmc2V0PSIxIiBzdG9wLWNvbG9yPSIjZTZlNmU2Ii8+PC9saW5lYXJHcmFkaWVudD48L2RlZnM+PHRpdGxlPkljb24tc3RvcmFnZS04NjwvdGl0bGU+PHBhdGggZD0iTS41LDUuNzloMTdhMCwwLDAsMCwxLDAsMHY5LjQ4YS41Ny41NywwLDAsMS0uNTcuNTdIMS4wN2EuNTcuNTcsMCwwLDEtLjU3LS41N1Y1Ljc5QTAsMCwwLDAsMSwuNSw1Ljc5WiIgZmlsbD0idXJsKCNhZDRjNGY5Ni0wOWFhLTRmOTEtYmExMC01Y2I4YWQ1MzBmNzQpIi8+PHBhdGggZD0iTTEuMDcsMi4xN0gxNi45M2EuNTcuNTcsMCwwLDEsLjU3LjU3VjUuNzlhMCwwLDAsMCwxLDAsMEguNWEwLDAsMCwwLDEsMCwwVjIuNzNBLjU3LjU3LDAsMCwxLDEuMDcsMi4xN1oiIGZpbGw9IiMzN2MyYjEiLz48cGF0aCBkPSJNMi44MSw2Ljg5SDE1LjE4YS4yNy4yNywwLDAsMSwuMjYuMjd2MS40YS4yNy4yNywwLDAsMS0uMjYuMjdIMi44MWEuMjcuMjcsMCwwLDEtLjI2LS4yN1Y3LjE2QS4yNy4yNywwLDAsMSwyLjgxLDYuODlaIiBmaWxsPSIjZmZmIi8+PHBhdGggZD0iTTIuODIsOS42OEgxNS4xOWEuMjcuMjcsMCwwLDEsLjI2LjI3djEuNDFhLjI3LjI3LDAsMCwxLS4yNi4yN0gyLjgyYS4yNy4yNywwLDAsMS0uMjYtLjI3VjEwQS4yNy4yNywwLDAsMSwyLjgyLDkuNjhaIiBmaWxsPSIjMzdjMmIxIi8+PHBhdGggZD0iTTIuODIsMTIuNUgxNS4xOWEuMjcuMjcsMCwwLDEsLjI2LjI3djEuNDFhLjI3LjI3LDAsMCwxLS4yNi4yN0gyLjgyYS4yNy4yNywwLDAsMS0uMjYtLjI3VjEyLjc3QS4yNy4yNywwLDAsMSwyLjgyLDEyLjVaIiBmaWxsPSIjMjU4Mjc3Ii8+PC9zdmc+;" parent="1" vertex="1">
                    <mxGeometry x="100" y="420" width="18" height="18" as="geometry"/>
                </mxCell>
                <mxCell id="7" value="" style="shape=image;verticalLabelPosition=bottom;labelBackgroundColor=#ffffff;verticalAlign=top;aspect=fixed;imageAspect=0;image=data:image/svg+xml,PHN2ZyB4bWxucz0iaHR0cDovL3d3dy53My5vcmcvMjAwMC9zdmciIHdpZHRoPSIxOCIgaGVpZ2h0PSIxOCIgdmlld0JveD0iMCAwIDE4IDE4Ij48ZGVmcz48bGluZWFyR3JhZGllbnQgaWQ9ImFmYzI3ODMwLTgzNTQtNGMwOC1hZGY5LWUyOTk1MjdlYmU1NSIgeDE9IjcuOTQiIHkxPSI3LjciIHgyPSI3Ljk0IiB5Mj0iMy43NSIgZ3JhZGllbnRVbml0cz0idXNlclNwYWNlT25Vc2UiPjxzdG9wIG9mZnNldD0iMCIgc3RvcC1jb2xvcj0iIzVlOTYyNCIvPjxzdG9wIG9mZnNldD0iMSIgc3RvcC1jb2xvcj0iIzc2YmMyZCIvPjwvbGluZWFyR3JhZGllbnQ+PGxpbmVhckdyYWRpZW50IGlkPSJlZGM1NjFhYy1hMWQ2LTQzOWYtYTA4Yi01OTRlZjAyMTRlZTMiIHgxPSI3Ljk0IiB5MT0iMTQuMjYiIHgyPSI3Ljk0IiB5Mj0iMTAuMzEiIGdyYWRpZW50VW5pdHM9InVzZXJTcGFjZU9uVXNlIj48c3RvcCBvZmZzZXQ9IjAiIHN0b3AtY29sb3I9IiM1ZTk2MjQiLz48c3RvcCBvZmZzZXQ9IjEiIHN0b3AtY29sb3I9IiM3NmJjMmQiLz48L2xpbmVhckdyYWRpZW50PjwvZGVmcz48dGl0bGU+SWNvbi1pbnRlZ3JhdGlvbi0yMDY8L3RpdGxlPjxnPjxnIGlkPSJhYTdlYTg0ZS1mYWFhLTQ2OTgtODlmZi0yMDNiNTUzMDg5ZjIiPjxnPjxnPjxwYXRoIGQ9Ik0xLjA2LDEuNDJIMi4zNWEwLDAsMCwwLDEsMCwwVjVhLjI5LjI5LDAsMCwxLS4yOS4yOUguNzdBLjI5LjI5LDAsMCwxLC40OCw1VjJBLjU3LjU3LDAsMCwxLDEuMDYsMS40MloiIGZpbGw9IiNhM2EzYTMiLz48cGF0aCBkPSJNMS4wNiwxLjQySDIuMzVhMCwwLDAsMCwxLDAsMFY1YS4yOS4yOSwwLDAsMS0uMjkuMjlILjc3QS4yOS4yOSwwLDAsMSwuNDgsNVYyQS41Ny41NywwLDAsMSwxLjA2LDEuNDJaIiBmaWxsPSIjYTNhM2EzIiBvcGFjaXR5PSIwLjUiLz48L2c+PGc+PHBhdGggZD0iTTE1LjY1LDEuNDJoMS4yOWEuNTcuNTcsMCwwLDEsLjU3LjU3VjVhLjI5LjI5LDAsMCwxLS4yOS4yOUgxNS45NEEuMjkuMjksMCwwLDEsMTUuNjUsNVYxLjQyQTAsMCwwLDAsMSwxNS42NSwxLjQyWiIgZmlsbD0iI2EzYTNhMyIvPjxwYXRoIGQ9Ik0xNS42NSwxLjQyaDEuMjlhLjU3LjU3LDAsMCwxLC41Ny41N1Y1YS4yOS4yOSwwLDAsMS0uMjkuMjlIMTUuOTRBLjI5LjI5LDAsMCwxLDE1LjY1LDVWMS40MkEwLDAsMCwwLDEsMTUuNjUsMS40MloiIGZpbGw9IiNhM2EzYTMiIG9wYWNpdHk9IjAuNSIvPjwvZz48cGF0aCBkPSJNOC42Ni02LjE5SDkuOTFhMCwwLDAsMCwxLDAsMHYxN2EwLDAsMCwwLDEsMCwwSDguNjZhLjU3LjU3LDAsMCwxLS41Ny0uNTdWLTUuNjJBLjU3LjU3LDAsMCwxLDguNjYtNi4xOVoiIHRyYW5zZm9ybT0idHJhbnNsYXRlKDExLjMyIC02LjY4KSByb3RhdGUoOTApIiBmaWxsPSIjOTQ5NDk0Ii8+PGc+PHBhdGggZD0iTS43NywxMi42OUgyLjA2YS4yOS4yOSwwLDAsMSwuMjkuMjl2My42MWEwLDAsMCwwLDEsMCwwSDEuMDZBLjU3LjU3LDAsMCwxLC40OCwxNlYxM0EuMjkuMjksMCwwLDEsLjc3LDEyLjY5WiIgZmlsbD0iI2EzYTNhMyIvPjxwYXRoIGQ9Ik0uNzcsMTIuNjlIMi4wNmEuMjkuMjksMCwwLDEsLjI5LjI5djMuNjFhMCwwLDAsMCwxLDAsMEgxLjA2QS41Ny41NywwLDAsMSwuNDgsMTZWMTNBLjI5LjI5LDAsMCwxLC43NywxMi42OVoiIGZpbGw9IiNhM2EzYTMiIG9wYWNpdHk9IjAuNSIvPjwvZz48Zz48cGF0aCBkPSJNMTUuOTQsMTIuNjloMS4yOWEuMjkuMjksMCwwLDEsLjI5LjI5djNhLjU3LjU3LDAsMCwxLS41Ny41N0gxNS42NWEwLDAsMCwwLDEsMCwwVjEzQS4yOS4yOSwwLDAsMSwxNS45NCwxMi42OVoiIGZpbGw9IiNhM2EzYTMiLz48cGF0aCBkPSJNMTUuOTQsMTIuNjloMS4yOWEuMjkuMjksMCwwLDEsLjI5LjI5djNhLjU3LjU3LDAsMCwxLS41Ny41N0gxNS42NWEwLDAsMCwwLDEsMCwwVjEzQS4yOS4yOSwwLDAsMSwxNS45NCwxMi42OVoiIGZpbGw9IiNhM2EzYTMiIG9wYWNpdHk9IjAuNSIvPjwvZz48cGF0aCBkPSJNOC42Niw3LjE2SDkuOTFhMCwwLDAsMCwxLDAsMHYxN2EwLDAsMCwwLDEsMCwwSDguNjZhLjU3LjU3LDAsMCwxLS41Ny0uNTdWNy43M0EuNTcuNTcsMCwwLDEsOC42Niw3LjE2WiIgdHJhbnNmb3JtPSJ0cmFuc2xhdGUoLTYuNjggMjQuNjgpIHJvdGF0ZSgtOTApIiBmaWxsPSIjOTQ5NDk0Ii8+PHBhdGggZD0iTTE0LjkxLDguODQsMTMuMDksN2EuMDkuMDksMCwwLDAtLjE2LjA3VjguMmEuMDkuMDksMCwwLDEtLjEuMUg3LjU5YTEuMDUsMS4wNSwwLDAsMC0uODMtLjQxLDEuMSwxLjEsMCwxLDAsMCwyLjE5LDEuMDgsMS4wOCwwLDAsMCwuODQtLjQyaDUuMjNhLjA5LjA5LDAsMCwxLC4xLjA5djEuMTFhLjA5LjA5LDAsMCwwLC4xNi4wNmwxLjgyLTEuODFBLjIuMiwwLDAsMCwxNC45MSw4Ljg0WiIgZmlsbD0iIzVlYTBlZiIvPjxwYXRoIGQ9Ik0xMS41NSw1LjU5LDkuNzMsMy43OGEuMDkuMDksMCwwLDAtLjE2LjA3VjVhLjA5LjA5LDAsMCwxLS4wOS4xSDYuMmExLjA3LDEuMDcsMCwwLDAtLjg0LS40MSwxLjEsMS4xLDAsMSwwLC44NSwxLjc3SDkuNDhhLjA5LjA5LDAsMCwxLC4wOS4wOVY3LjYxYS4wOS4wOSwwLDAsMCwuMTYuMDZsMS44Mi0xLjgxQS4yLjIsMCwwLDAsMTEuNTUsNS41OVoiIGZpbGw9InVybCgjYWZjMjc4MzAtODM1NC00YzA4LWFkZjktZTI5OTUyN2ViZTU1KSIvPjxwYXRoIGQ9Ik0xMS41NSwxMi4xNSw5LjczLDEwLjM0YS4wOS4wOSwwLDAsMC0uMTYuMDd2MS4xYS4xLjEsMCwwLDEtLjA5LjFINi4yYTEuMDcsMS4wNywwLDAsMC0uODQtLjQxQTEuMSwxLjEsMCwxLDAsNi4yMSwxM0g5LjQ4YS4wOS4wOSwwLDAsMSwuMDkuMDl2MS4xMWEuMDkuMDksMCwwLDAsLjE2LjA2bDEuODItMS44MUEuMi4yLDAsMCwwLDExLjU1LDEyLjE1WiIgZmlsbD0idXJsKCNlZGM1NjFhYy1hMWQ2LTQzOWYtYTA4Yi01OTRlZjAyMTRlZTMpIi8+PC9nPjwvZz48L2c+PC9zdmc+;" parent="1" vertex="1">
                    <mxGeometry x="10" y="240" width="18" height="18" as="geometry"/>
                </mxCell>
                <mxCell id="8" value="" style="shape=image;verticalLabelPosition=bottom;labelBackgroundColor=#ffffff;verticalAlign=top;aspect=fixed;imageAspect=0;image=data:image/svg+xml,PHN2ZyB4bWxucz0iaHR0cDovL3d3dy53My5vcmcvMjAwMC9zdmciIHdpZHRoPSIxOCIgaGVpZ2h0PSIxOCIgdmlld0JveD0iMCAwIDE4IDE4Ij48ZGVmcz48bGluZWFyR3JhZGllbnQgaWQ9ImEyMDU0N2U1LWQ2YWYtNDU2Yi1hZmJjLTA1ZDIyZmY4Y2I5ZCIgeDE9IjQ1ODkuNzIiIHkxPSItNTE4MC4wMiIgeDI9IjQ1ODkuNzIiIHkyPSItNTE4NC4yMSIgZ3JhZGllbnRUcmFuc2Zvcm09Im1hdHJpeCgwLjUsIDAsIDAsIC0wLjUsIC0yMjc1LjMxLCAtMjU4OS4zMikiIGdyYWRpZW50VW5pdHM9InVzZXJTcGFjZU9uVXNlIj48c3RvcCBvZmZzZXQ9IjAiIHN0b3AtY29sb3I9IiNjNjlhZWIiLz48c3RvcCBvZmZzZXQ9IjEiIHN0b3AtY29sb3I9IiM2ZjRiYjIiLz48L2xpbmVhckdyYWRpZW50PjxsaW5lYXJHcmFkaWVudCBpZD0iYTQ3NDVmNTEtNWU3NS00MTI2LTgxMmQtNmJiOGE1MTMwZTE2IiB4MT0iNDU4Ny45OSIgeTE9Ii01MTg4LjQ3IiB4Mj0iNDU4Ny45OSIgeTI9Ii01MTkyLjY1IiBocmVmPSIjYTIwNTQ3ZTUtZDZhZi00NTZiLWFmYmMtMDVkMjJmZjhjYjlkIi8+PC9kZWZzPjx0aXRsZT5JY29uLWludGVncmF0aW9uLTIxNTwvdGl0bGU+PGc+PGcgaWQ9ImIzMGIwYmQ1LWU0ZDItNDU2Yi04ZDQ5LWMyZGYyMDIwMDkxMiI+PHBhdGggaWQ9ImI1MTg3OGI1LThkNTAtNGI4Yi1iYzQ4LTc0ZjVmNzMxNWE5OSIgZD0iTTEyLjcsOC4xNXYtLjZIOC4xOEw2LjA2LDkuNjZINC41TDguMTIsNmgyLjQ3VjUuNDNINy44N0wzLjY1LDkuNjZoLS42di42SDQuODZMNywxMi4zN0gxMi4xdi0uNkg3LjIyTDUuNzEsMTAuMjZIOS4zOHYtLjZINi45MmwxLjUtMS41MVoiIGZpbGw9IiMzMmJlZGQiLz48Y2lyY2xlIGlkPSJhZDBlZDRlYi1jZDVmLTRjYzAtYmQxOS0yODMwZDI3ZWM4MDYiIGN4PSI5Ljk4IiBjeT0iOS45NiIgcj0iMC44NyIgZmlsbD0iI2ZmZiIvPjxjaXJjbGUgaWQ9ImEyNzQ2YjRhLTBhZTQtNDMwOC04NzZlLTViODI2NTdlMTg3MiIgY3g9IjEwLjg5IiBjeT0iNS43NCIgcj0iMC44NyIgZmlsbD0iI2ZmZiIvPjxjaXJjbGUgaWQ9ImZjMzMxNmUwLTcwOTQtNGNlMC05OWVkLTQzZjFlNmU0MzUwYyIgY3g9IjEzIiBjeT0iNy44NSIgcj0iMC44NyIgZmlsbD0iI2ZmZiIvPjxjaXJjbGUgaWQ9ImI1ZDE4NDQzLWQ1MGUtNDU5MC04ZThmLTgwYjZhN2Y2ZDM0OCIgY3g9IjEyLjEiIGN5PSIxMi4wNyIgcj0iMC44NyIgZmlsbD0iI2ZmZiIvPjxjaXJjbGUgY3g9IjEwLjg2IiBjeT0iNS43NCIgcj0iMS4wNSIgZmlsbD0iIzUwZTZmZiIvPjxjaXJjbGUgY3g9IjEyLjk3IiBjeT0iNy44NSIgcj0iMS4wNSIgZmlsbD0idXJsKCNhMjA1NDdlNS1kNmFmLTQ1NmItYWZiYy0wNWQyMmZmOGNiOWQpIi8+PGNpcmNsZSBjeD0iMTIuMSIgY3k9IjEyLjA3IiByPSIxLjA1IiBmaWxsPSJ1cmwoI2E0NzQ1ZjUxLTVlNzUtNDEyNi04MTJkLTZiYjhhNTEzMGUxNikiLz48Y2lyY2xlIGN4PSI5Ljk4IiBjeT0iOS45NiIgcj0iMS4wNSIgZmlsbD0iIzUwZTZmZiIvPjxnPjxwYXRoIGQ9Ik0xLjA3LDEuNDNIMi4zNmEwLDAsMCwwLDEsMCwwVjVhLjI5LjI5LDAsMCwxLS4yOS4yOUguNzlBLjI5LjI5LDAsMCwxLC41LDVWMkEuNTcuNTcsMCwwLDEsMS4wNywxLjQzWiIgZmlsbD0iIzk5OSIvPjxwYXRoIGQ9Ik0xLjA3LDEuNDNIMi4zNmEwLDAsMCwwLDEsMCwwVjVhLjI5LjI5LDAsMCwxLS4yOS4yOUguNzlBLjI5LjI5LDAsMCwxLC41LDVWMkEuNTcuNTcsMCwwLDEsMS4wNywxLjQzWiIgZmlsbD0iIzk5OSIgb3BhY2l0eT0iMC41Ii8+PC9nPjxnPjxwYXRoIGQ9Ik0xNS42NCwxLjQzaDEuMjlBLjU3LjU3LDAsMCwxLDE3LjUsMlY1YS4yOS4yOSwwLDAsMS0uMjkuMjlIMTUuOTJBLjI5LjI5LDAsMCwxLDE1LjY0LDVWMS40M0EwLDAsMCwwLDEsMTUuNjQsMS40M1oiIGZpbGw9IiM5OTkiLz48cGF0aCBkPSJNMTUuNjQsMS40M2gxLjI5QS41Ny41NywwLDAsMSwxNy41LDJWNWEuMjkuMjksMCwwLDEtLjI5LjI5SDE1LjkyQS4yOS4yOSwwLDAsMSwxNS42NCw1VjEuNDNBMCwwLDAsMCwxLDE1LjY0LDEuNDNaIiBmaWxsPSIjOTk5IiBvcGFjaXR5PSIwLjUiLz48L2c+PHBhdGggZD0iTTguNjYtNi4xNkg5LjkxYTAsMCwwLDAsMSwwLDB2MTdhMCwwLDAsMCwxLDAsMEg4LjY2YS41Ny41NywwLDAsMS0uNTctLjU3Vi01LjZBLjU3LjU3LDAsMCwxLDguNjYtNi4xNloiIHRyYW5zZm9ybT0idHJhbnNsYXRlKDExLjM0IC02LjY2KSByb3RhdGUoOTApIiBmaWxsPSIjOTQ5NDk0Ii8+PGc+PHBhdGggZD0iTS43OSwxMi42OEgyLjA4YS4yOS4yOSwwLDAsMSwuMjkuMjl2My42YTAsMCwwLDAsMSwwLDBIMS4wN0EuNTcuNTcsMCwwLDEsLjUsMTZWMTNBLjI5LjI5LDAsMCwxLC43OSwxMi42OFoiIGZpbGw9IiM5OTkiLz48cGF0aCBkPSJNLjc5LDEyLjY4SDIuMDhhLjI5LjI5LDAsMCwxLC4yOS4yOXYzLjZhMCwwLDAsMCwxLDAsMEgxLjA3QS41Ny41NywwLDAsMSwuNSwxNlYxM0EuMjkuMjksMCwwLDEsLjc5LDEyLjY4WiIgZmlsbD0iIzk5OSIgb3BhY2l0eT0iMC41Ii8+PC9nPjxnPjxwYXRoIGQ9Ik0xNS45MiwxMi42OGgxLjI5YS4yOS4yOSwwLDAsMSwuMjkuMjl2M2EuNTcuNTcsMCwwLDEtLjU3LjU3SDE1LjY0YTAsMCwwLDAsMSwwLDBWMTNBLjI5LjI5LDAsMCwxLDE1LjkyLDEyLjY4WiIgZmlsbD0iIzk5OSIvPjxwYXRoIGQ9Ik0xNS45MiwxMi42OGgxLjI5YS4yOS4yOSwwLDAsMSwuMjkuMjl2M2EuNTcuNTcsMCwwLDEtLjU3LjU3SDE1LjY0YTAsMCwwLDAsMSwwLDBWMTNBLjI5LjI5LDAsMCwxLDE1LjkyLDEyLjY4WiIgZmlsbD0iIzk5OSIgb3BhY2l0eT0iMC41Ii8+PC9nPjxwYXRoIGQ9Ik04LjY2LDcuMTZIOS45MWEwLDAsMCwwLDEsMCwwdjE3YTAsMCwwLDAsMSwwLDBIOC42NmEuNTcuNTcsMCwwLDEtLjU3LS41N1Y3LjczQS41Ny41NywwLDAsMSw4LjY2LDcuMTZaIiB0cmFuc2Zvcm09InRyYW5zbGF0ZSgtNi42NiAyNC42Nikgcm90YXRlKC05MCkiIGZpbGw9IiM5NDk0OTQiLz48L2c+PC9nPjwvc3ZnPg==;" parent="1" vertex="1">
                    <mxGeometry x="60" y="310" width="18" height="18" as="geometry"/>
                </mxCell>
                <mxCell id="9" value="" style="shape=image;verticalLabelPosition=bottom;labelBackgroundColor=#ffffff;verticalAlign=top;aspect=fixed;imageAspect=0;image=data:image/svg+xml,PHN2ZyB4bWxucz0iaHR0cDovL3d3dy53My5vcmcvMjAwMC9zdmciIHdpZHRoPSIxOCIgaGVpZ2h0PSIxOCIgdmlld0JveD0iMCAwIDE4IDE4Ij48ZGVmcz48bGluZWFyR3JhZGllbnQgaWQ9ImEyMDU0N2U1LWQ2YWYtNDU2Yi1hZmJjLTA1ZDIyZmY4Y2I5ZCIgeDE9IjQ1ODkuNzIiIHkxPSItNTE4MC4wMiIgeDI9IjQ1ODkuNzIiIHkyPSItNTE4NC4yMSIgZ3JhZGllbnRUcmFuc2Zvcm09Im1hdHJpeCgwLjUsIDAsIDAsIC0wLjUsIC0yMjc1LjMxLCAtMjU4OS4zMikiIGdyYWRpZW50VW5pdHM9InVzZXJTcGFjZU9uVXNlIj48c3RvcCBvZmZzZXQ9IjAiIHN0b3AtY29sb3I9IiNjNjlhZWIiLz48c3RvcCBvZmZzZXQ9IjEiIHN0b3AtY29sb3I9IiM2ZjRiYjIiLz48L2xpbmVhckdyYWRpZW50PjxsaW5lYXJHcmFkaWVudCBpZD0iYTQ3NDVmNTEtNWU3NS00MTI2LTgxMmQtNmJiOGE1MTMwZTE2IiB4MT0iNDU4Ny45OSIgeTE9Ii01MTg4LjQ3IiB4Mj0iNDU4Ny45OSIgeTI9Ii01MTkyLjY1IiBocmVmPSIjYTIwNTQ3ZTUtZDZhZi00NTZiLWFmYmMtMDVkMjJmZjhjYjlkIi8+PC9kZWZzPjx0aXRsZT5JY29uLWludGVncmF0aW9uLTIyMTwvdGl0bGU+PGc+PGcgaWQ9ImIzMGIwYmQ1LWU0ZDItNDU2Yi04ZDQ5LWMyZGYyMDIwMDkxMiI+PHBhdGggaWQ9ImI1MTg3OGI1LThkNTAtNGI4Yi1iYzQ4LTc0ZjVmNzMxNWE5OSIgZD0iTTEyLjcsOC4xNXYtLjZIOC4xOEw2LjA2LDkuNjZINC41TDguMTIsNmgyLjQ3VjUuNDNINy44N0wzLjY1LDkuNjZoLS42di42SDQuODZMNywxMi4zN0gxMi4xdi0uNkg3LjIyTDUuNzEsMTAuMjZIOS4zOHYtLjZINi45MmwxLjUtMS41MVoiIGZpbGw9IiMzMmJlZGQiLz48Y2lyY2xlIGlkPSJhZDBlZDRlYi1jZDVmLTRjYzAtYmQxOS0yODMwZDI3ZWM4MDYiIGN4PSI5Ljk4IiBjeT0iOS45NiIgcj0iMC44NyIgZmlsbD0iI2ZmZiIvPjxjaXJjbGUgaWQ9ImEyNzQ2YjRhLTBhZTQtNDMwOC04NzZlLTViODI2NTdlMTg3MiIgY3g9IjEwLjg5IiBjeT0iNS43NCIgcj0iMC44NyIgZmlsbD0iI2ZmZiIvPjxjaXJjbGUgaWQ9ImZjMzMxNmUwLTcwOTQtNGNlMC05OWVkLTQzZjFlNmU0MzUwYyIgY3g9IjEzIiBjeT0iNy44NSIgcj0iMC44NyIgZmlsbD0iI2ZmZiIvPjxjaXJjbGUgaWQ9ImI1ZDE4NDQzLWQ1MGUtNDU5MC04ZThmLTgwYjZhN2Y2ZDM0OCIgY3g9IjEyLjEiIGN5PSIxMi4wNyIgcj0iMC44NyIgZmlsbD0iI2ZmZiIvPjxjaXJjbGUgY3g9IjEwLjg2IiBjeT0iNS43NCIgcj0iMS4wNSIgZmlsbD0iIzUwZTZmZiIvPjxjaXJjbGUgY3g9IjEyLjk3IiBjeT0iNy44NSIgcj0iMS4wNSIgZmlsbD0idXJsKCNhMjA1NDdlNS1kNmFmLTQ1NmItYWZiYy0wNWQyMmZmOGNiOWQpIi8+PGNpcmNsZSBjeD0iMTIuMSIgY3k9IjEyLjA3IiByPSIxLjA1IiBmaWxsPSJ1cmwoI2E0NzQ1ZjUxLTVlNzUtNDEyNi04MTJkLTZiYjhhNTEzMGUxNikiLz48Y2lyY2xlIGN4PSI5Ljk4IiBjeT0iOS45NiIgcj0iMS4wNSIgZmlsbD0iIzUwZTZmZiIvPjxnPjxwYXRoIGQ9Ik0xLjA3LDEuNDNIMi4zNmEwLDAsMCwwLDEsMCwwVjVhLjI5LjI5LDAsMCwxLS4yOS4yOUguNzlBLjI5LjI5LDAsMCwxLC41LDVWMkEuNTcuNTcsMCwwLDEsMS4wNywxLjQzWiIgZmlsbD0iIzk5OSIvPjxwYXRoIGQ9Ik0xLjA3LDEuNDNIMi4zNmEwLDAsMCwwLDEsMCwwVjVhLjI5LjI5LDAsMCwxLS4yOS4yOUguNzlBLjI5LjI5LDAsMCwxLC41LDVWMkEuNTcuNTcsMCwwLDEsMS4wNywxLjQzWiIgZmlsbD0iIzk5OSIgb3BhY2l0eT0iMC41Ii8+PC9nPjxnPjxwYXRoIGQ9Ik0xNS42NCwxLjQzaDEuMjlBLjU3LjU3LDAsMCwxLDE3LjUsMlY1YS4yOS4yOSwwLDAsMS0uMjkuMjlIMTUuOTJBLjI5LjI5LDAsMCwxLDE1LjY0LDVWMS40M0EwLDAsMCwwLDEsMTUuNjQsMS40M1oiIGZpbGw9IiM5OTkiLz48cGF0aCBkPSJNMTUuNjQsMS40M2gxLjI5QS41Ny41NywwLDAsMSwxNy41LDJWNWEuMjkuMjksMCwwLDEtLjI5LjI5SDE1LjkyQS4yOS4yOSwwLDAsMSwxNS42NCw1VjEuNDNBMCwwLDAsMCwxLDE1LjY0LDEuNDNaIiBmaWxsPSIjOTk5IiBvcGFjaXR5PSIwLjUiLz48L2c+PHBhdGggZD0iTTguNjYtNi4xNkg5LjkxYTAsMCwwLDAsMSwwLDB2MTdhMCwwLDAsMCwxLDAsMEg4LjY2YS41Ny41NywwLDAsMS0uNTctLjU3Vi01LjZBLjU3LjU3LDAsMCwxLDguNjYtNi4xNloiIHRyYW5zZm9ybT0idHJhbnNsYXRlKDExLjM0IC02LjY2KSByb3RhdGUoOTApIiBmaWxsPSIjOTQ5NDk0Ii8+PGc+PHBhdGggZD0iTS43OSwxMi42OEgyLjA4YS4yOS4yOSwwLDAsMSwuMjkuMjl2My42YTAsMCwwLDAsMSwwLDBIMS4wN0EuNTcuNTcsMCwwLDEsLjUsMTZWMTNBLjI5LjI5LDAsMCwxLC43OSwxMi42OFoiIGZpbGw9IiM5OTkiLz48cGF0aCBkPSJNLjc5LDEyLjY4SDIuMDhhLjI5LjI5LDAsMCwxLC4yOS4yOXYzLjZhMCwwLDAsMCwxLDAsMEgxLjA3QS41Ny41NywwLDAsMSwuNSwxNlYxM0EuMjkuMjksMCwwLDEsLjc5LDEyLjY4WiIgZmlsbD0iIzk5OSIgb3BhY2l0eT0iMC41Ii8+PC9nPjxnPjxwYXRoIGQ9Ik0xNS45MiwxMi42OGgxLjI5YS4yOS4yOSwwLDAsMSwuMjkuMjl2M2EuNTcuNTcsMCwwLDEtLjU3LjU3SDE1LjY0YTAsMCwwLDAsMSwwLDBWMTNBLjI5LjI5LDAsMCwxLDE1LjkyLDEyLjY4WiIgZmlsbD0iIzk5OSIvPjxwYXRoIGQ9Ik0xNS45MiwxMi42OGgxLjI5YS4yOS4yOSwwLDAsMSwuMjkuMjl2M2EuNTcuNTcsMCwwLDEtLjU3LjU3SDE1LjY0YTAsMCwwLDAsMSwwLDBWMTNBLjI5LjI5LDAsMCwxLDE1LjkyLDEyLjY4WiIgZmlsbD0iIzk5OSIgb3BhY2l0eT0iMC41Ii8+PC9nPjxwYXRoIGQ9Ik04LjY2LDcuMTZIOS45MWEwLDAsMCwwLDEsMCwwdjE3YTAsMCwwLDAsMSwwLDBIOC42NmEuNTcuNTcsMCwwLDEtLjU3LS41N1Y3LjczQS41Ny41NywwLDAsMSw4LjY2LDcuMTZaIiB0cmFuc2Zvcm09InRyYW5zbGF0ZSgtNi42NiAyNC42Nikgcm90YXRlKC05MCkiIGZpbGw9IiM5NDk0OTQiLz48L2c+PC9nPjwvc3ZnPg==;" parent="1" vertex="1">
                    <mxGeometry x="50" y="480" width="18" height="18" as="geometry"/>
                </mxCell>
                <mxCell id="10" value="" style="shape=image;verticalLabelPosition=bottom;labelBackgroundColor=#ffffff;verticalAlign=top;aspect=fixed;imageAspect=0;image=data:image/svg+xml,PHN2ZyB4bWxucz0iaHR0cDovL3d3dy53My5vcmcvMjAwMC9zdmciIHdpZHRoPSIxOCIgaGVpZ2h0PSIxOCIgdmlld0JveD0iMCAwIDE4IDE4Ij48ZGVmcz48bGluZWFyR3JhZGllbnQgaWQ9ImJmYWY5ZWNhLTA1NjYtNGQwNS05YWEyLWMyY2NiOWRiMDYxZiIgeDE9IjkiIHkxPSIxNC4wNzEiIHgyPSI5IiB5Mj0iMS4zMTMiIGdyYWRpZW50VW5pdHM9InVzZXJTcGFjZU9uVXNlIj48c3RvcCBvZmZzZXQ9IjAiIHN0b3AtY29sb3I9IiMwMDc4ZDQiLz48c3RvcCBvZmZzZXQ9IjAuMTU2IiBzdG9wLWNvbG9yPSIjMTM4MGRhIi8+PHN0b3Agb2Zmc2V0PSIwLjUyOCIgc3RvcC1jb2xvcj0iIzNjOTFlNSIvPjxzdG9wIG9mZnNldD0iMC44MjIiIHN0b3AtY29sb3I9IiM1NTljZWMiLz48c3RvcCBvZmZzZXQ9IjEiIHN0b3AtY29sb3I9IiM1ZWEwZWYiLz48L2xpbmVhckdyYWRpZW50PjwvZGVmcz48dGl0bGU+TXNQb3J0YWxGeC5iYXNlLmltYWdlcy01ODwvdGl0bGU+PGcgaWQ9ImI1OWEzODYwLWU5MjQtNGQ1Zi1iODQ3LTBmMDk3NjEyNGFkZCI+PGc+PHBhdGggZD0iTTE4LDEwLjA3NWE0LjA0NCw0LjA0NCwwLDAsMC0zLjUxLTMuODg3QTUuMSw1LjEsMCwwLDAsOS4yNCwxLjMxM2E1LjIyOSw1LjIyOSwwLDAsMC01LDMuNDA4QTQuODI1LDQuODI1LDAsMCwwLDAsOS4zNjRhNC45LDQuOSwwLDAsMCw1LjA2OCw0LjcwN2MuMTUxLDAsLjMtLjAwNy40NDctLjAxOWg4LjIwN2EuODE5LjgxOSwwLDAsMCwuMjE3LS4wMzNBNC4wOTMsNC4wOTMsMCwwLDAsMTgsMTAuMDc1WiIgZmlsbD0idXJsKCNiZmFmOWVjYS0wNTY2LTRkMDUtOWFhMi1jMmNjYjlkYjA2MWYpIi8+PHBhdGggZD0iTTEyLjA2NywxMS44MDZINS43MDdhLjI3Ni4yNzYsMCwwLDAtLjI4Mi4yN3YxLjczMmEuMjc2LjI3NiwwLDAsMCwuMjgxLjI3aDYuMzYxYS4yNzYuMjc2LDAsMCwwLC4yODEtLjI3VjEyLjA3NkEuMjc3LjI3NywwLDAsMCwxMi4wNjcsMTEuODA2WiIgZmlsbD0iIzMyYmVkZCIvPjxwYXRoIGQ9Ik0xMi4wNjcsMTQuNDE1SDUuNzA3YS4yNzYuMjc2LDAsMCwwLS4yODIuMjd2MS43MzFhLjI3Ni4yNzYsMCwwLDAsLjI4MS4yNzFoNi4zNjFhLjI3Ni4yNzYsMCwwLDAsLjI4MS0uMjcxVjE0LjY4NUEuMjc3LjI3NywwLDAsMCwxMi4wNjcsMTQuNDE1WiIgZmlsbD0iIzE5OGFiMyIvPjxwYXRoIGQ9Ik0xMS4yNywxMi4yMzFoLjM3M2EuMDcyLjA3MiwwLDAsMSwuMDcyLjA3MnYuMzU2YS4wNjkuMDY5LDAsMCwxLS4wNjkuMDY5aC0uMzc5YS4wNjkuMDY5LDAsMCwxLS4wNjktLjA2OVYxMi4zQS4wNzIuMDcyLDAsMCwxLDExLjI3LDEyLjIzMVoiIGZpbGw9IiNiNGVjMzYiLz48cGF0aCBkPSJNMTEuMjY4LDEzLjA4N2guMzc2YS4wNzIuMDcyLDAsMCwxLC4wNzIuMDcydi4zNTNhLjA3Mi4wNzIsMCwwLDEtLjA3Mi4wNzJIMTEuMjdhLjA3Mi4wNzIsMCwwLDEtLjA3Mi0uMDcydi0uMzU2QS4wNjkuMDY5LDAsMCwxLDExLjI2OCwxMy4wODdaIiBmaWxsPSIjYjRlYzM2Ii8+PHBhdGggZD0iTTExLjI4OSwxNC44MjdoLjM3NmEuMDcyLjA3MiwwLDAsMSwuMDcyLjA3MnYuMzU2YS4wNjkuMDY5LDAsMCwxLS4wNjkuMDY5aC0uMzc2YS4wNzIuMDcyLDAsMCwxLS4wNzItLjA3MlYxNC45QS4wNjkuMDY5LDAsMCwxLDExLjI4OSwxNC44MjdaIiBmaWxsPSIjYjRlYzM2Ii8+PHBhdGggZD0iTTExLjI4OSwxNS42ODNoLjM3NmEuMDcyLjA3MiwwLDAsMSwuMDcyLjA3MnYuMzU2YS4wNjkuMDY5LDAsMCwxLS4wNjkuMDY5aC0uMzc5YS4wNjkuMDY5LDAsMCwxLS4wNjktLjA2OXYtLjM1OWEuMDY5LjA2OSwwLDAsMSwuMDY5LS4wNjlaIiBmaWxsPSIjYjRlYzM2Ii8+PHBhdGggZD0iTTEyLjAwNyw4Ljk5M0g1LjY0N2EuMjc2LjI3NiwwLDAsMC0uMjgyLjI3MVYxMWEuMjc3LjI3NywwLDAsMCwuMjgxLjI3MWg2LjM2MUEuMjc3LjI3NywwLDAsMCwxMi4yODgsMTFWOS4yNjRBLjI3Ny4yNzcsMCwwLDAsMTIuMDA3LDguOTkzWiIgZmlsbD0iIzUwZTZmZiIvPjxwYXRoIGQ9Ik0xMS4yMDgsOS40MTloLjM3NmEuMDcyLjA3MiwwLDAsMSwuMDcyLjA3MnYuMzU2YS4wNjkuMDY5LDAsMCwxLS4wNjkuMDY5SDExLjIxYS4wNzIuMDcyLDAsMCwxLS4wNzItLjA3MlY5LjQ4OEEuMDY5LjA2OSwwLDAsMSwxMS4yMDgsOS40MTlaIiBmaWxsPSIjZmZmIi8+PHBhdGggZD0iTTExLjIwOCwxMC4yNzVoLjM3NmEuMDcyLjA3MiwwLDAsMSwuMDcyLjA3MlYxMC43YS4wNjkuMDY5LDAsMCwxLS4wNjkuMDY5aC0uMzc5YS4wNjkuMDY5LDAsMCwxLS4wNjktLjA2OXYtLjM1OUEuMDY5LjA2OSwwLDAsMSwxMS4yMDgsMTAuMjc1WiIgZmlsbD0iI2ZmZiIvPjxwYXRoIGQ9Ik0xMS42MzUsNy40bC0yLjQzLDIuNDNhLjI5LjI5LDAsMCwxLS40MSwwTDYuMzY1LDcuNGEuMTMuMTMsMCwwLDEsLjA5Mi0uMjIxSDcuOTUxYS4xMjkuMTI5LDAsMCwwLC4xMjktLjEyOVY0LjAxNGEuMS4xLDAsMCwxLC4xLS4xSDkuODE2YS4xLjEsMCwwLDEsLjEuMVY3LjA1MWEuMTI5LjEyOSwwLDAsMCwuMTI5LjEyOWgxLjQ5NEEuMTMuMTMsMCwwLDEsMTEuNjM1LDcuNFoiIGZpbGw9IiNmZmYiLz48L2c+PC9nPjwvc3ZnPg==;" parent="1" vertex="1">
                    <mxGeometry x="260" y="460" width="60" height="60" as="geometry"/>
                </mxCell>
                <mxCell id="11" value="" style="shape=image;verticalLabelPosition=bottom;labelBackgroundColor=#ffffff;verticalAlign=top;aspect=fixed;imageAspect=0;image=data:image/svg+xml,PHN2ZyB4bWxucz0iaHR0cDovL3d3dy53My5vcmcvMjAwMC9zdmciIHhtbG5zOnhsaW5rPSJodHRwOi8vd3d3LnczLm9yZy8xOTk5L3hsaW5rIiB2aWV3Qm94PSIwIDAgODEgODIiIGZpbGw9IiNmZmYiIGZpbGwtcnVsZT0iZXZlbm9kZCIgc3Ryb2tlPSIjMDAwIiBzdHJva2UtbGluZWNhcD0icm91bmQiIHN0cm9rZS1saW5lam9pbj0icm91bmQiPjx1c2UgeGxpbms6aHJlZj0iI0EiIHg9Ii41IiB5PSIuNSIvPjxzeW1ib2wgaWQ9IkEiIG92ZXJmbG93PSJ2aXNpYmxlIj48cGF0aCBkPSJNMS4zMzMgMEMuNTMzIDAgMCAuNTMzIDAgMS4zMzN2MTZjMCAuOC41MzMgMS4zMzMgMS4zMzMgMS4zMzNoOGMuOCAwIDEuMzMzLS41MzMgMS4zMzMtMS4zMzN2LTYuNjY2aDU4LjY2N3Y2LjY2N2MwIC44LjUzMyAxLjMzMyAxLjYgMS4zMzNoNy43MzNjLjggMCAxLjMzMy0uNTMzIDEuMzMzLTEuMzMzdi04LThDODAgLjUzMyA3OS40NjcgMCA3OC42NjcgMGgwSDEuMzMzem03Ny4zMzQgODBjLjggMCAxLjMzMy0uNTMzIDEuMzMzLTEuMzMzVjYyLjkzNGMwLS44LS41MzMtMS4zMzMtMS4zMzMtMS4zMzNoLTcuNzMzYy0uOCAwLTEuMzMzLjUzMy0xLjMzMyAxLjMzM3Y2LjRIMTAuNjY3di02LjY2N2MwLS44LS41MzMtMS4zMzMtMS42LTEuMzMzSDEuMzMzYy0uOCAwLTEuMzMzLjUzMy0xLjMzMyAxLjZ2MTUuNzMzQzAgNzkuNDY3LjUzMyA4MCAxLjMzMyA4MGg3Ny4zMzR6IiBmaWxsPSIjMDA3MmM2IiBzdHJva2U9Im5vbmUiLz48cGF0aCBkPSJNMjkuNTE5IDM2LjQ0N2wzLjQ1Mi0zLjQ1MiAyLjU1NiAyLjU1Ni0zLjQ1MiAzLjQ1MXptNS4wMDctNS4wMDhsMy40NTYtMy40NTYgMi41NiAyLjU2TDM3LjA4NiAzNHptNy41Ny0yLjQ2M2wtMi41Ni0yLjU0NCAzLjQyNC0zLjQyNCAyLjU2IDIuNTQ0ek0zOS41MzUgNTIuNWwyLjU2MS0yLjU2IDMuNDI0IDMuNDI2LTIuNTYxIDIuNTZ6bS0xLjU1MS0xLjU3MmwtMy40NTYtMy40NTYgMi41Ni0yLjU0NCAzLjQ1NiAzLjQ1NnptLTUuMDA4LTUuMDA4bC0zLjQ1Ni0zLjQ1NiAyLjU2LTIuNTQ0IDMuNDQgMy40NHoiIHN0cm9rZT0ibm9uZSIgZmlsbD0iI2I4ZDQzMiIvPjxwYXRoIGQ9Ik01Ny44MSAyNC4zOTVhNC40NCA0LjQ0IDAgMCAxLTMuMTU4IDEuMzA5IDQuNDMgNC40MyAwIDAgMS0zLjE1OC0xLjMwOWwtNi4wNTMtNi4wNTN2MTIuMzA2aDE4LjQyNFYxOC4zNDJsLTYuMDU0IDYuMDUzem0tMy4xNjEuNDA5YTMuNTQgMy41NCAwIDAgMCAyLjUyMy0xLjA0NWw2LjY5LTYuNjl2LS4zNTVINDUuNDM4di4zNTVsNi42OSA2LjY5YTMuNTQgMy41NCAwIDAgMCAyLjUyMiAxLjA0NXptMy4xNjEgMzEuMTVhNC40NCA0LjQ0IDAgMCAxLTMuMTU4IDEuMzA5IDQuNDMgNC40MyAwIDAgMS0zLjE1OC0xLjMwOWwtNi4wNTMtNi4wNTN2MTIuMzA2aDE4LjQyNFY0OS45MDFsLTYuMDU0IDYuMDUzem0tMy4xNjEuNDFhMy41NCAzLjU0IDAgMCAwIDIuNTIzLTEuMDQ1bDYuNjktNi42ODl2LS4zNTVINDUuNDM4di4zNTVsNi42OSA2LjY4OWEzLjU0IDMuNTQgMCAwIDAgMi41MjIgMS4wNDV6TTE5LjcxOCA0MC41OTljLTEuMzQ0IDEuMzQ0LTMuMTMzIDIuMDg1LTUuMDM1IDIuMDg1cy0zLjY5LS43NDEtNS4wMzUtMi4wODVMMCAzMC45NDl2MTkuNjEzaDI5LjM2NlYzMC45NDlsLTkuNjQ4IDkuNjV6bS01LjAzNS42NTJhNS42NSA1LjY1IDAgMCAwIDQuMDIyLTEuNjY2bDEwLjY2MS0xMC42NjF2LS41NjVIMHYuNTY2bDEwLjY2MSAxMC42NjFhNS42NiA1LjY2IDAgMCAwIDQuMDIyIDEuNjY0eiIgc3Ryb2tlPSJub25lIiBmaWxsPSIjNTliNGQ5Ii8+PC9zeW1ib2w+PC9zdmc+;" vertex="1" parent="1">
                    <mxGeometry x="28" y="348.37" width="51" height="51.63" as="geometry"/>
                </mxCell>
            </root>
        </mxGraphModel>
    </diagram>
</mxfile>